<svg width="40" height="40" viewBox="0 0 40 40" fill="none" xmlns="http://www.w3.org/2000/svg">
<g clip-path="url(#clip0_162_7)">
<rect width="40" height="40" rx="8" fill="#C4DFF2"/>
<path d="M13.002 5C12.2063 5 11.4433 5.31607 10.8807 5.87868C10.3181 6.44129 10.002 7.20435 10.002 8V16.763C10.342 16.593 10.723 16.5 11.119 16.5H12.002V8C12.002 7.73478 12.1073 7.48043 12.2949 7.29289C12.4824 7.10536 12.7368 7 13.002 7H22.002V12C22.002 12.7956 22.318 13.5587 22.8807 14.1213C23.4433 14.6839 24.2063 15 25.002 15H30.002V30C30.002 30.2652 29.8966 30.5196 29.7091 30.7071C29.5216 30.8946 29.2672 31 29.002 31H15.984L13.908 33H29.002C29.7976 33 30.5607 32.6839 31.1233 32.1213C31.6859 31.5587 32.002 30.7956 32.002 30V13.828C32.0015 13.0328 31.6854 12.2702 31.123 11.708L25.295 5.878C24.7323 5.31572 23.9694 4.9999 23.174 5H13.002ZM29.588 13H25.002C24.7368 13 24.4824 12.8946 24.2949 12.7071C24.1073 12.5196 24.002 12.2652 24.002 12V7.414L29.588 13ZM11.121 18H19.503C19.5917 18 19.6789 18.0237 19.7555 18.0685C19.8321 18.1133 19.8953 18.1777 19.9388 18.2551C19.9823 18.3325 20.0044 18.42 20.0028 18.5087C20.0013 18.5975 19.9761 18.6842 19.93 18.76L16.75 24H19.241C19.3905 24.0001 19.5365 24.0449 19.6603 24.1285C19.7842 24.2122 19.8802 24.331 19.9361 24.4696C19.992 24.6082 20.0052 24.7604 19.974 24.9066C19.9428 25.0528 19.8686 25.1863 19.761 25.29L11.015 33.717C10.257 34.447 9.02998 33.662 9.37598 32.667L11.002 28H6.74998C6.62237 28 6.49687 27.9674 6.38535 27.9054C6.27384 27.8433 6.18 27.7539 6.11272 27.6454C6.04543 27.537 6.00693 27.4132 6.00085 27.2857C5.99477 27.1583 6.02132 27.0313 6.07798 26.917L10.225 18.556C10.3078 18.3889 10.4357 18.2483 10.5942 18.15C10.7527 18.0518 10.9345 17.9998 11.121 18Z" fill="#005999"/>
</g>
<defs>
<clipPath id="clip0_162_7">
<rect width="40" height="40" fill="white"/>
</clipPath>
</defs>
</svg>
